<?xml version="1.0" encoding="UTF-8" standalone="no"?>
<!-- Created with Inkscape (http://www.inkscape.org/) -->

<svg
   xmlns:dc="http://purl.org/dc/elements/1.1/"
   xmlns:cc="http://creativecommons.org/ns#"
   xmlns:rdf="http://www.w3.org/1999/02/22-rdf-syntax-ns#"
   xmlns:svg="http://www.w3.org/2000/svg"
   xmlns="http://www.w3.org/2000/svg"
   xmlns:sodipodi="http://sodipodi.sourceforge.net/DTD/sodipodi-0.dtd"
   xmlns:inkscape="http://www.inkscape.org/namespaces/inkscape"
   width="165.39999"
   height="40.200001"
   id="svg2"
   version="1.1"
   inkscape:version="0.48.3.1 r9886"
   sodipodi:docname="Neues Dokument 1">
  <defs
     id="defs4" />
  <sodipodi:namedview
     id="base"
     pagecolor="#ffffff"
     bordercolor="#666666"
     borderopacity="1.0"
     inkscape:pageopacity="0.0"
     inkscape:pageshadow="2"
     inkscape:zoom="5"
     inkscape:cx="127.21475"
     inkscape:cy="68.1"
     inkscape:document-units="px"
     inkscape:current-layer="layer1"
     showgrid="false"
     fit-margin-top="0"
     fit-margin-left="0"
     fit-margin-right="0"
     fit-margin-bottom="0"
     inkscape:window-width="2560"
     inkscape:window-height="1378"
     inkscape:window-x="-8"
     inkscape:window-y="-8"
     inkscape:window-maximized="1" />
  <metadata
     id="metadata7">
    <rdf:RDF>
      <cc:Work
         rdf:about="">
        <dc:format>image/svg+xml</dc:format>
        <dc:type
           rdf:resource="http://purl.org/dc/dcmitype/StillImage" />
        <dc:title></dc:title>
      </cc:Work>
    </rdf:RDF>
  </metadata>
  <g
     inkscape:label="Ebene 1"
     inkscape:groupmode="layer"
     id="layer1"
     transform="translate(0,-1012.1622)">
    <g
       id="g3066"
       transform="translate(-336.2,716.5622)">
      <g
         id="g2986">
	<g
   id="g2988">
		<path
   id="path2990"
   d="m 413.7,311 c 0,1.6 -0.3,3 -0.8,4.3 -0.5,1.3 -1.3,2.4 -2.2,3.4 -1,0.9 -2.1,1.7 -3.4,2.2 -1.3,0.5 -2.7,0.8 -4.3,0.8 h -12.6 c -0.3,0 -0.6,-0.1 -0.9,-0.2 -0.3,-0.1 -0.5,-0.3 -0.7,-0.5 -0.2,-0.2 -0.4,-0.5 -0.5,-0.7 -0.1,-0.3 -0.2,-0.6 -0.2,-0.9 v -21 c 0,-0.3 0.1,-0.6 0.2,-0.9 0.1,-0.3 0.3,-0.5 0.5,-0.8 0.2,-0.3 0.5,-0.4 0.7,-0.5 0.3,-0.1 0.6,-0.2 0.9,-0.2 H 403 c 1.5,0 3,0.3 4.3,0.8 1.3,0.5 2.4,1.3 3.4,2.2 1,0.9 1.7,2.1 2.2,3.4 0.5,1.3 0.8,2.8 0.8,4.3 v 4.3 z m -4.7,-4.2 c 0,-0.9 -0.1,-1.7 -0.4,-2.5 -0.3,-0.8 -0.7,-1.4 -1.2,-1.9 -0.5,-0.5 -1.2,-0.9 -1.9,-1.2 -0.7,-0.3 -1.6,-0.4 -2.5,-0.4 h -10.3 v 16.4 H 403 c 0.9,0 1.7,-0.1 2.5,-0.4 0.7,-0.3 1.4,-0.7 1.9,-1.2 0.5,-0.5 1,-1.2 1.2,-1.9 0.2,-0.7 0.4,-1.6 0.4,-2.5 v -4.4 z"
   inkscape:connector-curvature="0" />

		<path
   id="path2992"
   d="m 441.4,321.7 h -16.8 c -0.4,0 -0.9,-0.1 -1.4,-0.2 -0.5,-0.1 -1,-0.3 -1.5,-0.5 -0.5,-0.2 -0.9,-0.5 -1.4,-0.8 -0.4,-0.3 -0.8,-0.8 -1.2,-1.2 -0.3,-0.5 -0.6,-1 -0.8,-1.7 -0.2,-0.6 -0.3,-1.4 -0.3,-2.2 v -12.6 c 0,-0.4 0.1,-0.9 0.2,-1.4 0.1,-0.5 0.3,-1 0.5,-1.5 0.2,-0.5 0.5,-0.9 0.8,-1.4 0.3,-0.4 0.8,-0.8 1.2,-1.2 0.5,-0.3 1,-0.6 1.7,-0.8 0.6,-0.2 1.3,-0.3 2.1,-0.3 h 16.8 v 4.7 h -16.8 c -0.6,0 -1.1,0.2 -1.4,0.5 -0.3,0.3 -0.5,0.8 -0.5,1.4 v 12.6 c 0,0.6 0.2,1.1 0.5,1.4 0.3,0.3 0.8,0.5 1.4,0.5 h 16.8 v 4.7 z"
   inkscape:connector-curvature="0" />

		<path
   id="path2994"
   d="m 470.6,314.2 c 0,0.9 -0.1,1.7 -0.3,2.5 -0.2,0.7 -0.5,1.4 -0.9,1.9 -0.4,0.6 -0.8,1 -1.3,1.4 -0.5,0.4 -1,0.7 -1.6,1 -0.5,0.3 -1.1,0.4 -1.7,0.6 -0.6,0.1 -1.1,0.2 -1.6,0.2 h -18 v -4.7 h 18 c 0.9,0 1.6,-0.3 2.1,-0.8 0.5,-0.5 0.7,-1.2 0.7,-2.1 0,-0.4 -0.1,-0.8 -0.2,-1.2 -0.1,-0.4 -0.3,-0.7 -0.6,-0.9 -0.2,-0.3 -0.5,-0.5 -0.9,-0.6 -0.4,-0.1 -0.7,-0.2 -1.2,-0.2 h -10.7 c -0.8,0 -1.6,-0.1 -2.4,-0.4 -0.8,-0.3 -1.7,-0.7 -2.4,-1.3 -0.7,-0.6 -1.4,-1.4 -1.9,-2.3 -0.5,-0.9 -0.7,-2.1 -0.7,-3.5 0,-1.4 0.2,-2.6 0.7,-3.5 0.5,-0.9 1.1,-1.7 1.9,-2.3 0.7,-0.6 1.6,-1 2.4,-1.3 0.8,-0.3 1.7,-0.4 2.4,-0.4 h 15.8 v 4.7 h -15.8 c -0.9,0 -1.6,0.3 -2.1,0.8 -0.5,0.5 -0.7,1.2 -0.7,2.1 0,0.9 0.2,1.6 0.7,2.1 0.5,0.5 1.2,0.8 2.1,0.8 h 10.7 0 c 0.5,0 1,0.1 1.6,0.2 0.6,0.1 1.1,0.3 1.7,0.6 0.6,0.3 1.1,0.6 1.6,1 0.5,0.4 0.9,0.9 1.3,1.4 0.4,0.6 0.7,1.2 0.9,1.9 0.3,0.5 0.4,1.3 0.4,2.3 z"
   inkscape:connector-curvature="0" />

		<path
   id="path2996"
   d="m 501.6,311.3 c 0,1.6 -0.3,3 -0.8,4.3 -0.5,1.3 -1.3,2.4 -2.2,3.4 -1,1 -2.1,1.7 -3.4,2.2 -1.3,0.5 -2.7,0.8 -4.3,0.8 h -6.3 c -1.5,0 -3,-0.3 -4.3,-0.8 -1.3,-0.5 -2.4,-1.3 -3.4,-2.2 -1,-1 -1.7,-2.1 -2.2,-3.4 -0.5,-1.3 -0.8,-2.8 -0.8,-4.3 v -4.9 c 0,-1.6 0.3,-3 0.8,-4.3 0.5,-1.3 1.3,-2.5 2.2,-3.4 0.9,-0.9 2.1,-1.7 3.4,-2.2 1.3,-0.5 2.7,-0.8 4.3,-0.8 h 6.3 c 1.5,0 3,0.3 4.3,0.8 1.3,0.5 2.4,1.3 3.4,2.2 1,0.9 1.7,2.1 2.2,3.4 0.5,1.3 0.8,2.8 0.8,4.3 v 4.9 z m -4.6,-4.9 c 0,-0.9 -0.1,-1.8 -0.4,-2.5 -0.3,-0.7 -0.7,-1.4 -1.2,-1.9 -0.5,-0.5 -1.2,-0.9 -1.9,-1.2 -0.7,-0.3 -1.6,-0.4 -2.5,-0.4 h -6.3 c -0.9,0 -1.7,0.1 -2.5,0.4 -0.8,0.3 -1.4,0.7 -1.9,1.2 -0.5,0.5 -1,1.2 -1.2,1.9 -0.3,0.7 -0.4,1.6 -0.4,2.5 v 4.9 c 0,0.9 0.1,1.8 0.4,2.5 0.3,0.7 0.7,1.4 1.2,1.9 0.5,0.5 1.2,0.9 1.9,1.2 0.7,0.3 1.6,0.4 2.5,0.4 h 6.3 c 0.9,0 1.7,-0.1 2.5,-0.4 0.8,-0.3 1.4,-0.7 1.9,-1.2 0.5,-0.5 1,-1.2 1.2,-1.9 0.3,-0.7 0.4,-1.6 0.4,-2.5 v -4.9 z"
   inkscape:connector-curvature="0" />

	</g>

	<g
   id="g2998">
		<path
   id="path3000"
   d="m 392.1,335.7 h -3.8 c -0.1,0 -0.2,-0.1 -0.2,-0.2 v -7.4 c 0,-0.1 0.1,-0.2 0.2,-0.2 h 3.8 c 0.1,0 0.2,0.1 0.2,0.2 v 0.4 c 0,0.1 -0.1,0.2 -0.2,0.2 h -2.9 c -0.1,0 -0.1,0 -0.1,0.1 v 2.4 c 0,0.1 0,0.1 0.1,0.1 h 2.6 c 0.1,0 0.2,0.1 0.2,0.2 v 0.4 c 0,0.1 -0.1,0.2 -0.2,0.2 h -2.6 c -0.1,0 -0.1,0 -0.1,0.1 v 2.6 c 0,0.1 0,0.1 0.1,0.1 h 2.9 c 0.1,0 0.2,0.1 0.2,0.2 v 0.4 c 0,0.2 -0.1,0.2 -0.2,0.2 z"
   inkscape:connector-curvature="0" />

		<path
   id="path3002"
   d="m 394.7,335.7 h -0.5 c -0.1,0 -0.2,-0.1 -0.2,-0.2 v -7.4 c 0,-0.1 0.1,-0.2 0.2,-0.2 h 0.5 c 0.1,0 0.2,0 0.2,0.1 l 3.3,5.8 h 0 v -5.7 c 0,-0.1 0.1,-0.2 0.2,-0.2 h 0.5 c 0.1,0 0.2,0.1 0.2,0.2 v 7.4 c 0,0.1 -0.1,0.2 -0.2,0.2 h -0.4 c -0.1,0 -0.2,-0.1 -0.3,-0.2 l -3.3,-5.8 h 0 v 5.7 c -0.1,0.3 -0.1,0.3 -0.2,0.3 z"
   inkscape:connector-curvature="0" />

		<path
   id="path3004"
   d="m 404,335.7 h -1.3 c -0.6,0 -1,-0.2 -1.3,-0.5 -0.3,-0.3 -0.5,-0.7 -0.5,-1.3 v -4.2 c 0,-0.6 0.2,-1 0.5,-1.3 0.3,-0.3 0.8,-0.5 1.3,-0.5 h 1.3 c 0.6,0 1,0.2 1.3,0.5 0.3,0.3 0.5,0.8 0.5,1.3 v 0.5 c 0,0.1 -0.1,0.2 -0.2,0.2 H 405 c -0.1,0 -0.2,-0.1 -0.2,-0.2 v -0.5 c 0,-0.7 -0.3,-1 -1,-1 h -1.1 c -0.7,0 -1,0.3 -1,1 v 4.1 c 0,0.7 0.3,1 1,1 h 1.1 c 0.7,0 1,-0.3 1,-1 v -1.3 c 0,-0.1 0,-0.1 -0.1,-0.1 h -1.2 c -0.1,0 -0.2,-0.1 -0.2,-0.2 v -0.4 c 0,-0.1 0.1,-0.2 0.2,-0.2 h 1.9 c 0.2,0 0.2,0.1 0.2,0.3 v 2 c 0,0.6 -0.2,1 -0.5,1.3 -0.2,0.4 -0.6,0.5 -1.1,0.5 z"
   inkscape:connector-curvature="0" />

		<path
   id="path3006"
   d="m 408.5,328.2 v 7.4 c 0,0.1 -0.1,0.2 -0.2,0.2 h -0.5 c -0.1,0 -0.2,-0.1 -0.2,-0.2 v -7.4 c 0,-0.1 0.1,-0.2 0.2,-0.2 h 0.5 c 0.1,0 0.2,0.1 0.2,0.2 z"
   inkscape:connector-curvature="0" />

		<path
   id="path3008"
   d="m 411.2,335.7 h -0.5 c -0.1,0 -0.2,-0.1 -0.2,-0.2 v -7.4 c 0,-0.1 0.1,-0.2 0.2,-0.2 h 0.5 c 0.1,0 0.2,0 0.2,0.1 l 3.3,5.8 h 0 v -5.7 c 0,-0.1 0.1,-0.2 0.2,-0.2 h 0.5 c 0.1,0 0.2,0.1 0.2,0.2 v 7.4 c 0,0.1 -0.1,0.2 -0.2,0.2 H 415 c -0.1,0 -0.2,-0.1 -0.3,-0.2 l -3.3,-5.8 h 0 v 5.7 c 0,0.3 -0.1,0.3 -0.2,0.3 z"
   inkscape:connector-curvature="0" />

		<path
   id="path3010"
   d="m 421.5,335.7 h -3.8 c -0.1,0 -0.2,-0.1 -0.2,-0.2 v -7.4 c 0,-0.1 0.1,-0.2 0.2,-0.2 h 3.8 c 0.1,0 0.2,0.1 0.2,0.2 v 0.4 c 0,0.1 -0.1,0.2 -0.2,0.2 h -2.9 c -0.1,0 -0.1,0 -0.1,0.1 v 2.4 c 0,0.1 0,0.1 0.1,0.1 h 2.6 c 0.1,0 0.2,0.1 0.2,0.2 v 0.4 c 0,0.1 -0.1,0.2 -0.2,0.2 h -2.6 c -0.1,0 -0.1,0 -0.1,0.1 v 2.6 c 0,0.1 0,0.1 0.1,0.1 h 2.9 c 0.1,0 0.2,0.1 0.2,0.2 v 0.4 c -0.1,0.2 -0.1,0.2 -0.2,0.2 z"
   inkscape:connector-curvature="0" />

		<path
   id="path3012"
   d="m 427.3,335.7 h -3.8 c -0.1,0 -0.2,-0.1 -0.2,-0.2 v -7.4 c 0,-0.1 0.1,-0.2 0.2,-0.2 h 3.8 c 0.1,0 0.2,0.1 0.2,0.2 v 0.4 c 0,0.1 -0.1,0.2 -0.2,0.2 h -2.9 c -0.1,0 -0.1,0 -0.1,0.1 v 2.4 c 0,0.1 0,0.1 0.1,0.1 h 2.6 c 0.1,0 0.2,0.1 0.2,0.2 v 0.4 c 0,0.1 -0.1,0.2 -0.2,0.2 h -2.6 c -0.1,0 -0.1,0 -0.1,0.1 v 2.6 c 0,0.1 0,0.1 0.1,0.1 h 2.9 c 0.1,0 0.2,0.1 0.2,0.2 v 0.4 c 0,0.2 -0.1,0.2 -0.2,0.2 z"
   inkscape:connector-curvature="0" />

		<path
   id="path3014"
   d="m 429.9,335.7 h -0.5 c -0.1,0 -0.2,-0.1 -0.2,-0.2 v -7.4 c 0,-0.1 0.1,-0.2 0.2,-0.2 h 2.8 c 0.6,0 1,0.2 1.3,0.5 0.3,0.3 0.5,0.8 0.5,1.3 v 1.1 c 0,0.4 -0.1,0.8 -0.3,1.1 -0.2,0.3 -0.5,0.5 -0.9,0.6 v 0 l 1.4,2.9 c 0.1,0.1 0,0.2 -0.1,0.2 h -0.5 c -0.1,0 -0.2,-0.1 -0.3,-0.2 l -1.3,-2.9 h -1.6 c -0.1,0 -0.1,0 -0.1,0.1 v 2.8 c -0.2,0.3 -0.3,0.3 -0.4,0.3 z m 0.3,-3.8 h 1.8 c 0.7,0 1,-0.3 1,-1 v -1.1 c 0,-0.7 -0.3,-1 -1,-1 h -1.8 c -0.1,0 -0.1,0 -0.1,0.1 v 2.9 c 0,0.1 0,0.1 0.1,0.1 z"
   inkscape:connector-curvature="0" />

		<path
   id="path3016"
   d="m 436.6,328.2 v 7.4 c 0,0.1 -0.1,0.2 -0.2,0.2 h -0.5 c -0.1,0 -0.2,-0.1 -0.2,-0.2 v -7.4 c 0,-0.1 0.1,-0.2 0.2,-0.2 h 0.5 c 0.2,0 0.2,0.1 0.2,0.2 z"
   inkscape:connector-curvature="0" />

		<path
   id="path3018"
   d="m 439.3,335.7 h -0.5 c -0.1,0 -0.2,-0.1 -0.2,-0.2 v -7.4 c 0,-0.1 0.1,-0.2 0.2,-0.2 h 0.5 c 0.1,0 0.2,0 0.2,0.1 l 3.3,5.8 h 0 v -5.7 c 0,-0.1 0.1,-0.2 0.2,-0.2 h 0.5 c 0.1,0 0.2,0.1 0.2,0.2 v 7.4 c 0,0.1 -0.1,0.2 -0.2,0.2 h -0.4 c -0.1,0 -0.2,-0.1 -0.3,-0.2 l -3.3,-5.8 h 0 v 5.7 c 0,0.3 -0.1,0.3 -0.2,0.3 z"
   inkscape:connector-curvature="0" />

		<path
   id="path3020"
   d="m 448.6,335.7 h -1.3 c -0.6,0 -1,-0.2 -1.3,-0.5 -0.3,-0.3 -0.5,-0.7 -0.5,-1.3 v -4.2 c 0,-0.6 0.2,-1 0.5,-1.3 0.3,-0.3 0.8,-0.5 1.3,-0.5 h 1.3 c 0.6,0 1,0.2 1.3,0.5 0.3,0.3 0.5,0.8 0.5,1.3 v 0.5 c 0,0.1 -0.1,0.2 -0.2,0.2 h -0.5 c -0.1,0 -0.2,-0.1 -0.2,-0.2 v -0.5 c 0,-0.7 -0.3,-1 -1,-1 h -1.1 c -0.7,0 -1,0.3 -1,1 v 4.1 c 0,0.7 0.3,1 1,1 h 1.1 c 0.7,0 1,-0.3 1,-1 v -1.3 c 0,-0.1 0,-0.1 -0.1,-0.1 h -1.2 c -0.1,0 -0.2,-0.1 -0.2,-0.2 v -0.4 c 0,-0.1 0.1,-0.2 0.2,-0.2 h 1.9 c 0.2,0 0.2,0.1 0.2,0.3 v 2 c 0,0.6 -0.2,1 -0.5,1.3 -0.2,0.4 -0.6,0.5 -1.2,0.5 z"
   inkscape:connector-curvature="0" />

		<path
   id="path3022"
   d="m 455.2,333.9 v -0.4 c 0,-0.1 0.1,-0.2 0.2,-0.2 h 0.5 c 0.1,0 0.2,0.1 0.2,0.2 v 0.3 c 0,0.7 0.4,1.1 1.1,1.1 h 1.1 c 0.7,0 1.1,-0.4 1.1,-1.1 v -0.4 c 0,-0.6 -0.5,-1 -1.4,-1.1 -0.4,-0.1 -0.8,-0.2 -1.2,-0.3 -0.4,-0.1 -0.7,-0.3 -1,-0.6 -0.3,-0.3 -0.4,-0.7 -0.4,-1.1 v -0.6 c 0,-0.6 0.2,-1 0.5,-1.3 0.3,-0.3 0.8,-0.5 1.3,-0.5 h 1.3 c 0.5,0 1,0.2 1.3,0.5 0.3,0.3 0.5,0.8 0.5,1.3 v 0.3 c 0,0.1 -0.1,0.2 -0.2,0.2 h -0.6 c -0.1,0 -0.2,-0.1 -0.2,-0.2 v -0.2 c 0,-0.7 -0.4,-1.1 -1.1,-1.1 h -1 c -0.7,0 -1.1,0.4 -1.1,1.1 v 0.5 c 0,0.4 0.3,0.7 0.8,0.8 0.2,0.1 0.5,0.1 0.8,0.2 0.3,0.1 0.6,0.1 0.9,0.2 0.3,0.1 0.6,0.2 0.8,0.3 0.2,0.1 0.4,0.3 0.6,0.6 0.1,0.3 0.2,0.6 0.2,0.9 v 0.5 c 0,0.6 -0.2,1 -0.5,1.3 -0.3,0.3 -0.8,0.5 -1.3,0.5 H 457 c -0.5,0 -1,-0.2 -1.3,-0.5 -0.3,-0.2 -0.5,-0.6 -0.5,-1.2 z"
   inkscape:connector-curvature="0" />

		<path
   id="path3024"
   d="m 466,335.7 h -3.8 c -0.1,0 -0.2,-0.1 -0.2,-0.2 v -7.4 c 0,-0.1 0.1,-0.2 0.2,-0.2 h 3.8 c 0.1,0 0.2,0.1 0.2,0.2 v 0.4 c 0,0.1 -0.1,0.2 -0.2,0.2 h -3 c -0.1,0 -0.1,0 -0.1,0.1 v 2.4 c 0,0.1 0,0.1 0.1,0.1 h 2.6 c 0.1,0 0.2,0.1 0.2,0.2 v 0.4 c 0,0.1 -0.1,0.2 -0.2,0.2 H 463 c -0.1,0 -0.1,0 -0.1,0.1 v 2.6 c 0,0.1 0,0.1 0.1,0.1 h 2.9 c 0.1,0 0.2,0.1 0.2,0.2 v 0.4 c 0.1,0.2 0,0.2 -0.1,0.2 z"
   inkscape:connector-curvature="0" />

		<path
   id="path3026"
   d="m 471,335.7 h -1.4 c -0.6,0 -1,-0.2 -1.3,-0.5 -0.3,-0.3 -0.5,-0.7 -0.5,-1.3 v -4.2 c 0,-0.6 0.2,-1 0.5,-1.3 0.3,-0.3 0.8,-0.5 1.3,-0.5 h 1.4 c 0.6,0 1,0.2 1.3,0.5 0.3,0.3 0.5,0.7 0.5,1.3 v 0.6 c 0,0.1 -0.1,0.2 -0.2,0.2 H 472 c -0.1,0 -0.2,-0.1 -0.2,-0.2 v -0.6 c 0,-0.7 -0.3,-1 -1,-1 h -1.2 c -0.7,0 -1,0.3 -1,1 v 4.1 c 0,0.7 0.3,1 1,1 h 1.2 c 0.7,0 1,-0.3 1,-1 v -0.6 c 0,-0.1 0.1,-0.2 0.2,-0.2 h 0.5 c 0.1,0 0.2,0.1 0.2,0.2 v 0.6 c 0,0.6 -0.2,1 -0.5,1.3 -0.2,0.5 -0.7,0.6 -1.2,0.6 z"
   inkscape:connector-curvature="0" />

		<path
   id="path3028"
   d="m 478.5,328 h 0.5 c 0.1,0 0.2,0.1 0.2,0.2 v 5.8 c 0,0.6 -0.2,1 -0.5,1.3 -0.3,0.3 -0.7,0.5 -1.3,0.5 h -1.3 c -0.6,0 -1,-0.2 -1.3,-0.5 -0.3,-0.3 -0.5,-0.7 -0.5,-1.3 v -5.8 c 0,-0.1 0.1,-0.2 0.2,-0.2 h 0.5 c 0.1,0 0.2,0.1 0.2,0.2 v 5.7 c 0,0.7 0.3,1 1,1 h 1.1 c 0.7,0 1,-0.3 1,-1 v -5.7 c 0.1,-0.1 0.1,-0.2 0.2,-0.2 z"
   inkscape:connector-curvature="0" />

		<path
   id="path3030"
   d="m 481.8,335.7 h -0.5 c -0.1,0 -0.2,-0.1 -0.2,-0.2 v -7.4 c 0,-0.1 0.1,-0.2 0.2,-0.2 h 2.8 c 0.6,0 1,0.2 1.3,0.5 0.3,0.3 0.5,0.8 0.5,1.3 v 1.1 c 0,0.4 -0.1,0.8 -0.3,1.1 -0.2,0.3 -0.5,0.5 -0.9,0.6 v 0 l 1.4,2.9 c 0.1,0.1 0,0.2 -0.1,0.2 h -0.5 c -0.1,0 -0.2,-0.1 -0.3,-0.2 l -1.3,-2.9 h -1.6 c -0.1,0 -0.1,0 -0.1,0.1 v 2.8 c -0.2,0.3 -0.2,0.3 -0.4,0.3 z m 0.3,-3.8 h 1.8 c 0.7,0 1,-0.3 1,-1 v -1.1 c 0,-0.7 -0.3,-1 -1,-1 h -1.8 c -0.1,0 -0.1,0 -0.1,0.1 v 2.9 c 0,0.1 0,0.1 0.1,0.1 z"
   inkscape:connector-curvature="0" />

		<path
   id="path3032"
   d="m 488.6,328.2 v 7.4 c 0,0.1 -0.1,0.2 -0.2,0.2 h -0.5 c -0.1,0 -0.2,-0.1 -0.2,-0.2 v -7.4 c 0,-0.1 0.1,-0.2 0.2,-0.2 h 0.5 c 0.1,0 0.2,0.1 0.2,0.2 z"
   inkscape:connector-curvature="0" />

		<path
   id="path3034"
   d="M 492.5,335.7 H 492 c -0.1,0 -0.2,-0.1 -0.2,-0.2 v -6.7 c 0,-0.1 0,-0.1 -0.1,-0.1 H 490 c -0.1,0 -0.2,-0.1 -0.2,-0.2 v -0.4 c 0,-0.1 0.1,-0.2 0.2,-0.2 h 4.4 c 0.1,0 0.2,0.1 0.2,0.2 v 0.4 c 0,0.1 -0.1,0.2 -0.2,0.2 h -1.6 c -0.1,0 -0.1,0 -0.1,0.1 v 6.7 c -0.1,0.2 -0.1,0.2 -0.2,0.2 z"
   inkscape:connector-curvature="0" />

		<path
   id="path3036"
   d="m 498.1,335.7 h -0.5 c -0.1,0 -0.2,-0.1 -0.2,-0.2 v -2.7 l -2.3,-4.6 c 0,-0.1 0,-0.1 0,-0.1 0,0 0.1,0 0.1,0 h 0.7 c 0.1,0 0.2,0.1 0.2,0.2 l 1.7,3.6 h 0.1 l 1.7,-3.6 c 0,-0.1 0.1,-0.2 0.2,-0.2 h 0.7 c 0.1,0 0.2,0.1 0.1,0.2 l -2.3,4.6 v 2.7 c 0,0.1 -0.1,0.1 -0.2,0.1 z"
   inkscape:connector-curvature="0" />

	</g>

</g>
      <g
         id="g3038">
	<path
   id="path3040"
   d="m 357.2,327.9 h 9.2 c 1.1,0 2.1,-0.9 2.1,-2.1 v -9.2 h -6 v 3.1 c 0,1.2 -1,2.1 -2.1,2.1 h -8.1 c -1.2,0 -2.1,-1 -2.1,-2.1 v -3.1 h -6 v 9.2 c 0,1.1 0.9,2.1 2.1,2.1 h 9.2 1.7 z"
   inkscape:connector-curvature="0"
   style="fill:#c4d877" />

	<path
   id="path3042"
   d="m 336.2,299.5 v 32.4 c 0,2.1 1.7,3.9 3.9,3.9 h 15.3 v -6 h -9.2 c -2.2,0 -3.9,-1.8 -3.9,-3.9 v -9.2 -1.9 -9.2 c 0,-2.2 1.8,-3.9 3.9,-3.9 h 9.2 v -6 h -15.3 c -2.2,-0.1 -3.9,1.6 -3.9,3.8 z"
   inkscape:connector-curvature="0"
   style="fill:#0586b0" />

	<path
   id="path3044"
   d="m 376.4,331.9 v -32.4 c 0,-2.1 -1.7,-3.9 -3.9,-3.9 h -15.3 v 6 h 9.2 c 2.2,0 3.9,1.8 3.9,3.9 v 9.2 1.9 9.2 c 0,2.2 -1.8,3.9 -3.9,3.9 h -9.2 v 6 h 15.3 c 2.1,0.1 3.9,-1.7 3.9,-3.8 z"
   inkscape:connector-curvature="0"
   style="fill:#003b61" />

	<path
   id="path3046"
   d="m 357.2,303.5 h -1.9 -9.2 c -1.1,0 -2.1,0.9 -2.1,2.1 v 9.2 h 6 v -3.1 c 0,-1.2 1,-2.1 2.1,-2.1 h 8.1 c 1.2,0 2.1,1 2.1,2.1 v 3.1 h 6 v -9.2 c 0,-1.1 -0.9,-2.1 -2.1,-2.1 h -9 z"
   inkscape:connector-curvature="0"
   style="fill:#6db620" />

</g>
      <g
         id="g3048">
</g>
      <g
         id="g3050">
</g>
      <g
         id="g3052">
</g>
      <g
         id="g3054">
</g>
      <g
         id="g3056">
</g>
      <g
         id="g3058">
</g>
    </g>
  </g>
</svg>
